# xmcd
#
# Track frame offsets:
#	150
#	21171
#	41315
#	45339
#	59776
#	78407
#	97419
#	114410
#
# Disc length: 1808 seconds
#
# Revision: 1
# Processed by: cddbd v1.5.2PL0 Copyright (c) Steve Scherf et al.
# Submitted via: audiograbber 1.83.01
#
DISCID=64070e08
DTITLE=Muskee - Cut de Luxe
DYEAR=1991
DGENRE=Blues
TTITLE0=Brother Booze
TTITLE1=Help Me
TTITLE2=Blue Interlude
TTITLE3=Sleepin' Dog
TTITLE4=Broken Wings
TTITLE5=Hit Rough
TTITLE6=Tough On Me
TTITLE7=Window Of My Eyes '91
EXTD=
EXTT0=
EXTT1=
EXTT2=
EXTT3=
EXTT4=
EXTT5=
EXTT6=
EXTT7=
PLAYORDER=
